<?xml version="1.0" encoding="UTF-8" standalone="no"?>
<svg width="2560px" height="1440px" viewBox="0 0 2560 1440" version="1.1" xmlns="http://www.w3.org/2000/svg" xmlns:xlink="http://www.w3.org/1999/xlink" xmlns:sketch="http://www.bohemiancoding.com/sketch/ns">
    <!-- Generator: Sketch 3.3 (11970) - http://www.bohemiancoding.com/sketch -->
    <title>Artboard 1</title>
    <desc>Created with Sketch.</desc>
    <defs>
        <linearGradient x1="50%" y1="3.62523916%" x2="50%" y2="100%" id="linearGradient-1">
            <stop stop-color="#000000" stop-opacity="0" offset="0%"></stop>
            <stop stop-color="#000000" stop-opacity="0.466060915" offset="100%"></stop>
        </linearGradient>
        <rect id="path-2" x="-11" y="0" width="2576" height="1440"></rect>
    </defs>
    <g id="Page-1" stroke="none" stroke-width="1" fill="none" fill-rule="evenodd" sketch:type="MSPage">
        <g id="Artboard-1" sketch:type="MSArtboardGroup">
            <rect id="Rectangle-13" fill="#C3CFDB" sketch:type="MSShapeGroup" x="-134" y="-27" width="2796" height="1562"></rect>
            <path d="M216,124.5625 C372.303669,107.511191 391.582488,85.4585125 500,84.5625 C608.417512,83.6664875 513.798234,151.756021 683.992188,163.992188 C854.186142,176.228355 798.992259,153.940911 1141.99219,163.992191 C1484.99212,174.043471 1652.25707,118.940141 1792,152.5625 C1931.74293,186.184859 1748.00781,252.562489 1644,256.5625 C1539.99219,260.562511 1730.00784,264.62989 1460,252.5625 C1189.99216,240.49511 1058.89193,212.572399 928,224.5625 C797.108065,236.552601 953.456771,287.866666 936,300.5625 C918.543229,313.258334 994.422156,326.231704 796,320.5625 C597.577844,314.893296 474.007812,357.132812 376,284.5625 C277.992187,211.992187 218.707555,295.890185 112,244.5625 C5.29244499,193.234815 51.2582737,142.649107 60,132.5625 C68.7417263,122.475893 59.6963307,141.613809 216,124.5625 Z" id="Path-5" fill-opacity="0.557942708" fill="#FFFEFE" sketch:type="MSShapeGroup"></path>
            <path d="M866,246.137165 C1022.30367,229.085855 1041.58249,207.033177 1150,206.137165 C1258.41751,205.241152 1163.79823,273.330686 1333.99219,285.566853 C1504.18614,297.803019 1448.99226,275.515576 1791.99219,285.566855 C2134.99212,295.618135 2302.25707,240.514806 2442,274.137165 C2581.74293,307.759523 2398.00781,374.137154 2294,378.137165 C2189.99219,382.137176 2380.00784,386.204554 2110,374.137165 C1839.99216,362.069775 1708.89193,334.147064 1578,346.137165 C1447.10807,358.127266 1603.45677,409.441331 1586,422.137165 C1568.54323,434.832998 1644.42216,447.806369 1446,442.137165 C1247.57784,436.46796 1124.00781,478.707477 1026,406.137165 C927.992187,333.566852 868.707555,417.464849 762,366.137165 C655.292445,314.80948 701.258274,264.223772 710,254.137165 C718.741726,244.050557 709.696331,263.188474 866,246.137165 Z" id="Path-5-Copy" fill-opacity="0.311565897" fill="#FFFEFE" sketch:type="MSShapeGroup" transform="translate(1592.583197, 327.703066) scale(-1, 1) translate(-1592.583197, -327.703066) "></path>
            <path d="M1516.46411,-81.5659018 C1672.76778,-98.6172112 1692.0466,-120.669889 1800.46411,-121.565902 C1908.88162,-122.461914 1814.26234,-54.3723804 1984.4563,-42.1362138 C2154.65025,-29.9000472 2099.45637,-52.1874909 2442.4563,-42.136211 C2785.45623,-32.084931 2952.72118,-87.1882606 3092.46411,-53.5659018 C3232.20704,-19.943543 3048.47192,46.4340872 2944.46411,50.4340982 C2840.4563,54.4341092 3030.47195,58.5014877 2760.46411,46.4340982 C2490.45627,34.3667087 2359.35605,6.44399729 2228.46411,18.4340982 C2097.57218,30.4241991 2253.92088,81.7382646 2236.46411,94.4340982 C2219.00734,107.129932 2294.88627,120.103303 2096.46411,114.434098 C1898.04195,108.764894 1774.47192,151.004411 1676.46411,78.4340982 C1578.4563,5.86378568 1519.17167,89.7617829 1412.46411,38.4340982 C1305.75656,-12.8935865 1351.72238,-63.4792946 1360.46411,-73.5659018 C1369.20584,-83.652509 1360.16044,-64.5145924 1516.46411,-81.5659018 Z" id="Path-5-Copy-2" fill-opacity="0.311565897" fill="#FFFEFE" sketch:type="MSShapeGroup" transform="translate(2243.047308, 0.000000) scale(-1, 1) translate(-2243.047308, -0.000000) "></path>
            <circle id="Oval-1" fill="#FDE3A7" sketch:type="MSShapeGroup" cx="554.5" cy="447.480469" r="230.5"></circle>
            <path d="M64.28125,260.15354 L108.28125,282.280603 L124.28125,272.446353 L138.28125,252.777853 L152.195312,284.739165 L166.285156,278.597561 L168.328125,289.661092 L178.328125,288.431811 L194.328125,304.412467 L204.328125,325.310248 L285.371094,363.417967 L294.371094,358.500842 L307.371094,367.105811 L317.371094,359.730123 L325.371094,365.876529 L337.371094,360.959404 L366.371094,360.959404 L376.371094,369.564373 L381.371094,358.500842 L390.371094,357.271561 L412.328125,338.832342 L438.328125,330.227373 L450.328125,319.163842 L462.328125,322.851686 L474.328125,317.934561 L491.328125,341.290904 L500.328125,338.832342 L503.328125,351.125154 L513.328125,351.125154 L522.328125,331.456654 L534.328125,331.456654 L545.328125,338.832342 L556.371094,347.490131 L565.371094,362.241506 L574.371094,362.241506 L592.371094,375.7636 L624.445312,368.387913 L644.445312,386.827131 L668.371094,376.992881 L683.371094,365.92935 L704.371094,364.700069 L710.371094,358.553663 L719.371094,361.012225 L738.371094,378.222163 L756.371094,374.534319 L762.300781,380.680725 L793.300781,347.490131 L815.347656,333.968038 L828.347656,331.509475 L839.347656,340.172066 L851.347656,351.235598 L864.347656,346.318473 L872.300781,354.923441 L885.300781,363.52841 L914.300781,404.094691 L932.300781,411.5232 L951.300781,413.981762 L960.230469,402.918231 L986.230469,405.376793 L996.230469,411.5232 L1022.09766,407.724913 L1034.09766,396.661381 L1046.09766,396.661381 L1049.09766,383.139288 L1060.09766,376.992881 L1063.09766,363.470788 L1073.09766,357.324381 L1080.09766,347.490131 L1090.09766,348.719413 L1094.09766,357.324381 L1103.09766,341.343725 L1110.02344,345.031569 L1121.95312,332.738756 L1127.95312,329.050913 L1132.95312,317.987381 L1140.95312,315.528819 L1143.95312,303.236006 L1152.95312,298.318881 L1168.99609,295.860319 L1173.99609,303.293629 L1181.99609,277.478723 L1191.99609,270.103035 L1191.99609,262.669725 L1204.99609,255.294038 L1223.99609,256.523319 L1239.99609,260.211163 L1247.99609,254.064756 L1254.99609,256.523319 L1262.99609,262.669725 L1283.99609,277.4211 L1284.99609,286.026069 L1297.99609,295.860319 L1303.99609,284.796788 L1323.04297,298.376504 L1327.04297,311.898598 L1327.04297,322.962129 L1339.04297,332.796379 L1344.04297,342.630629 L1384.04297,381.967629 L1411.04297,381.967629 L1418.04297,369.674816 L1430.04297,374.591941 L1433.04297,385.655473 L1440.08594,384.426191 L1439.08594,374.591941 L1452.08594,373.36266 L1464.08594,380.738348 L1481.08594,413.928941 L1508.08594,420.075348 L1516.13281,423.763191 L1521.13281,416.387504 L1530.13281,427.451035 L1539.13281,429.909598 L1546.13281,418.846066 L1570.13281,407.782535 L1581.17578,404.037069 L1592.17578,410.183475 L1600.17578,431.081256 L1609.10547,428.622694 L1614.10547,415.1006 L1628.10547,397.890663 L1640.10547,395.4321 L1646.10547,370.846475 L1663.10547,373.305038 L1670.10547,346.150407 L1681.10547,348.608969 L1684.10547,341.324518 L1716.10547,338.865955 L1742.17578,352.388049 L1752.24609,351.158768 L1759.24609,364.680861 L1770.24609,367.139424 L1776.24609,375.797213 L1785.24609,373.338651 L1802.24609,391.77787 L1817.24609,395.465713 L1820.24609,385.631463 L1830.24609,386.860745 L1835.24609,395.465713 L1844.24609,389.319307 L1879.24609,381.94362 L1912.24609,390.548588 L1938.29297,383.172901 L1948.33594,369.650807 L1959.33594,363.504401 L1969.33594,356.128713 L1982.33594,356.128713 L1992.33594,363.504401 L2007.33594,356.128713 L2021.33594,356.128713 L2028.33594,372.10937 L2055.33594,365.962963 L2063.38281,373.391471 L2094.38281,378.308596 L2102.38281,356.181534 L2112.30859,364.786503 L2128.35547,346.294463 L2136.35547,351.211588 L2140.35547,335.230932 L2155.35547,331.543088 L2164.35547,314.333151 L2172.35547,315.562432 L2191.35547,303.26962 L2202.30859,306.957463 L2216.30859,300.758236 L2224.30859,287.236143 L2263.30859,305.675361 L2274.30859,306.904643 L2295.30859,292.153268 L2311.30859,295.841111 L2317.30859,283.548299 L2333.30859,293.382549 L2336.30859,304.44608 L2378.30859,282.319018 L2398.30859,284.77758 L2398.30859,294.61183 L2418.23828,276.172611 L2453.28125,282.319018 L2471.28125,268.849745 L2472.28125,257.786213 L2502.28125,256.556932 L2511.28125,265.161901 L2524.28125,265.161901 L2534.28125,247.951963 L2551.28125,243.034838 L2564.28125,224.59562 L2580.28125,236.888432 L2597.28125,230.742026 L2613.28125,218.449213 L2625.28125,200.009995 L2686.28125,570.023651 L2438.28125,660.990463 L0,636.428848 L64.28125,260.15354 Z" id="Path-1-Copy" fill-opacity="0.731884058" fill="#EEDAAD" sketch:type="MSShapeGroup"></path>
            <path d="M64.28125,277.143546 L108.28125,299.270608 L124.28125,289.436358 L138.28125,269.767858 L152.195312,301.729171 L166.285156,295.587566 L168.328125,306.651097 L178.328125,305.421816 L194.328125,321.402472 L204.328125,342.300254 L285.371094,380.407972 L294.371094,375.490847 L307.371094,384.095816 L317.371094,376.720129 L325.371094,382.866535 L337.371094,377.94941 L366.371094,377.94941 L376.371094,386.554379 L381.371094,375.490847 L390.371094,374.261566 L412.328125,355.822347 L438.328125,347.217379 L450.328125,336.153847 L462.328125,339.841691 L474.328125,334.924566 L491.328125,358.28091 L500.328125,355.822347 L503.328125,368.11516 L513.328125,368.11516 L522.328125,348.44666 L534.328125,348.44666 L545.328125,355.822347 L556.371094,364.480137 L565.371094,379.231512 L574.371094,379.231512 L592.371094,392.753606 L624.445312,385.377918 L644.445312,403.817137 L668.371094,393.982887 L683.371094,382.919356 L704.371094,381.690074 L710.371094,375.543668 L719.371094,378.002231 L738.371094,395.212168 L756.371094,391.524324 L762.300781,397.670731 L793.300781,364.480137 L815.347656,350.958043 L828.347656,348.499481 L839.347656,357.162072 L851.347656,368.225603 L864.347656,363.308478 L872.300781,371.913447 L885.300781,380.518416 L914.300781,421.084697 L932.300781,428.513205 L951.300781,430.971768 L960.230469,419.908236 L986.230469,422.366799 L996.230469,428.513205 L1022.09766,424.714918 L1034.09766,413.651387 L1046.09766,413.651387 L1049.09766,400.129293 L1060.09766,393.982887 L1063.09766,380.460793 L1073.09766,374.314387 L1080.09766,364.480137 L1090.09766,365.709418 L1094.09766,374.314387 L1103.09766,358.333731 L1110.02344,362.021574 L1121.95312,349.728762 L1127.95312,346.040918 L1132.95312,334.977387 L1140.95312,332.518824 L1143.95312,320.226012 L1152.95312,315.308887 L1168.99609,312.850324 L1173.99609,320.283634 L1181.99609,294.468728 L1191.99609,287.093041 L1191.99609,279.659731 L1204.99609,272.284043 L1223.99609,273.513324 L1239.99609,277.201168 L1247.99609,271.054762 L1254.99609,273.513324 L1262.99609,279.659731 L1283.99609,294.411106 L1284.99609,303.016074 L1297.99609,312.850324 L1303.99609,301.786793 L1323.04297,315.366509 L1327.04297,328.888603 L1327.04297,339.952134 L1339.04297,349.786384 L1344.04297,359.620634 L1384.04297,398.957634 L1411.04297,398.957634 L1418.04297,386.664822 L1430.04297,391.581947 L1433.04297,402.645478 L1440.08594,401.416197 L1439.08594,391.581947 L1452.08594,390.352666 L1464.08594,397.728353 L1481.08594,430.918947 L1508.08594,437.065353 L1516.13281,440.753197 L1521.13281,433.377509 L1530.13281,444.441041 L1539.13281,446.899603 L1546.13281,435.836072 L1570.13281,424.772541 L1581.17578,421.027074 L1592.17578,427.173481 L1600.17578,448.071262 L1609.10547,445.612699 L1614.10547,432.090606 L1628.10547,414.880668 L1640.10547,412.422106 L1646.10547,387.836481 L1663.10547,390.295043 L1670.10547,363.140412 L1681.10547,365.598975 L1684.10547,358.314523 L1716.10547,355.855961 L1742.17578,369.378054 L1752.24609,368.148773 L1759.24609,381.670867 L1770.24609,384.129429 L1776.24609,392.787219 L1785.24609,390.328656 L1802.24609,408.767875 L1817.24609,412.455719 L1820.24609,402.621469 L1830.24609,403.85075 L1835.24609,412.455719 L1844.24609,406.309313 L1879.24609,398.933625 L1912.24609,407.538594 L1938.29297,400.162906 L1948.33594,386.640813 L1959.33594,380.494406 L1969.33594,373.118719 L1982.33594,373.118719 L1992.33594,380.494406 L2007.33594,373.118719 L2021.33594,373.118719 L2028.33594,389.099375 L2055.33594,382.952969 L2063.38281,390.381477 L2094.38281,395.298602 L2102.38281,373.171539 L2112.30859,381.776508 L2128.35547,363.284469 L2136.35547,368.201594 L2140.35547,352.220937 L2155.35547,348.533094 L2164.35547,331.323156 L2172.35547,332.552437 L2191.35547,320.259625 L2202.30859,323.947469 L2216.30859,317.748242 L2224.30859,304.226148 L2263.30859,322.665367 L2274.30859,323.894648 L2295.30859,309.143273 L2311.30859,312.831117 L2317.30859,300.538304 L2333.30859,310.372554 L2336.30859,321.436086 L2378.30859,299.309023 L2398.30859,301.767586 L2398.30859,311.601836 L2418.23828,293.162617 L2453.28125,299.309023 L2471.28125,285.83975 L2472.28125,274.776219 L2502.28125,273.546938 L2511.28125,282.151906 L2524.28125,282.151906 L2534.28125,264.941969 L2551.28125,260.024844 L2564.28125,241.585625 L2580.28125,253.878438 L2597.28125,247.732031 L2613.28125,235.439219 L2625.28125,217 L2686.28125,587.013656 L2438.28125,677.980469 L0,653.418853 L64.28125,277.143546 Z" id="Path-1-Copy-3" fill="#90C695" sketch:type="MSShapeGroup"></path>
            <path d="M-0.09375,157.864639 L43.90625,215.943702 L59.90625,190.130785 L73.90625,138.504952 L87.8203125,222.396931 L101.910156,206.276462 L103.953125,235.315993 L113.953125,232.089379 L129.953125,274.035368 L139.953125,328.887816 L220.996094,428.912868 L229.996094,416.00641 L242.996094,438.592712 L252.996094,419.233024 L260.996094,435.366097 L272.996094,422.459639 L301.996094,422.459639 L311.996094,445.045941 L316.996094,416.00641 L325.996094,412.779795 L347.953125,364.380577 L373.953125,341.794274 L385.953125,312.754743 L397.953125,322.434587 L409.953125,309.528129 L426.953125,370.833806 L435.953125,364.380577 L438.953125,396.646722 L448.953125,396.646722 L457.953125,345.020889 L469.953125,345.020889 L480.953125,364.380577 L491.996094,387.105522 L500.996094,425.824897 L509.996094,425.824897 L527.996094,461.317658 L560.070312,441.95797 L580.070312,490.357189 L603.996094,464.544272 L618.996094,435.504741 L639.996094,432.278126 L645.996094,416.145054 L654.996094,422.598283 L673.996094,467.770887 L691.996094,458.091043 L697.925781,474.224116 L728.925781,387.105522 L750.972656,351.612762 L763.972656,345.159533 L774.972656,367.897082 L786.972656,396.936614 L799.972656,384.030155 L807.925781,406.616457 L820.925781,429.202759 L849.925781,535.681041 L867.925781,555.179372 L886.925781,561.632601 L895.855469,532.59307 L921.855469,539.046299 L931.855469,555.179372 L957.722656,545.209637 L969.722656,516.170106 L981.722656,516.170106 L984.722656,480.677345 L995.722656,464.544272 L998.722656,429.051512 L1008.72266,412.918439 L1015.72266,387.105522 L1025.72266,390.332137 L1029.72266,412.918439 L1038.72266,370.972449 L1045.64844,380.652293 L1057.57812,348.386147 L1063.57812,338.706304 L1068.57812,309.666772 L1076.57812,303.213543 L1079.57812,270.947397 L1088.57812,258.040939 L1104.62109,251.58771 L1109.62109,271.098645 L1117.62109,203.339739 L1127.62109,183.980051 L1127.62109,164.469116 L1140.62109,145.109429 L1159.62109,148.336043 L1175.62109,158.015887 L1183.62109,141.882814 L1190.62109,148.336043 L1198.62109,164.469116 L1219.62109,203.188491 L1220.62109,225.774793 L1233.62109,251.58771 L1239.62109,222.548179 L1258.66797,258.192186 L1262.66797,293.684947 L1262.66797,322.724478 L1274.66797,348.537395 L1279.66797,374.350311 L1319.66797,477.601978 L1346.66797,477.601978 L1353.66797,445.335832 L1365.66797,458.242291 L1368.66797,487.281822 L1375.71094,484.055207 L1374.71094,458.242291 L1387.71094,455.015676 L1399.71094,474.375364 L1416.71094,561.493957 L1443.71094,577.62703 L1451.75781,587.306874 L1456.75781,567.947186 L1465.75781,596.986718 L1474.75781,603.439947 L1481.75781,574.400416 L1505.75781,545.360884 L1516.80078,535.529793 L1527.80078,551.662866 L1535.80078,606.515314 L1544.73047,600.062085 L1549.73047,564.569324 L1563.73047,519.39672 L1575.73047,512.943491 L1581.73047,448.411199 L1598.73047,454.864429 L1605.73047,383.589017 L1616.73047,390.042246 L1619.73047,370.922033 L1651.73047,364.468804 L1677.80078,399.961565 L1687.87109,396.73495 L1694.87109,432.227711 L1705.87109,438.68094 L1711.87109,461.405885 L1720.87109,454.952656 L1737.87109,503.351875 L1752.87109,513.031719 L1755.87109,487.218802 L1765.87109,490.445417 L1770.87109,513.031719 L1779.87109,496.898646 L1814.87109,477.538958 L1847.87109,500.12526 L1873.91797,480.765573 L1883.96094,445.272812 L1894.96094,429.13974 L1904.96094,409.780052 L1917.96094,409.780052 L1927.96094,429.13974 L1942.96094,409.780052 L1956.96094,409.780052 L1963.96094,451.726042 L1990.96094,435.592969 L1999.00781,455.0913 L2030.00781,467.997758 L2038.00781,409.918696 L2047.93359,432.504998 L2063.98047,383.967135 L2071.98047,396.873594 L2075.98047,354.927604 L2090.98047,345.24776 L2099.98047,300.075156 L2107.98047,303.301771 L2126.98047,271.035625 L2137.93359,280.715469 L2151.93359,264.443752 L2159.93359,228.950992 L2198.93359,277.350211 L2209.93359,280.576825 L2230.93359,241.85745 L2246.93359,251.537294 L2252.93359,219.271148 L2268.93359,245.084065 L2271.93359,274.123596 L2313.93359,216.044533 L2333.93359,222.497763 L2333.93359,248.310679 L2353.86328,199.911461 L2388.90625,216.044533 L2406.90625,180.690417 L2407.90625,151.650885 L2437.90625,148.424271 L2446.90625,171.010573 L2459.90625,171.010573 L2469.90625,125.837969 L2486.90625,112.93151 L2499.90625,64.5322917 L2515.90625,96.7984375 L2532.90625,80.6653646 L2548.90625,48.3992188 L2560.90625,0 L2624.17188,1209.98047 L2373.90625,1209.98047 L-64.375,1145.5112 L-0.09375,157.864639 Z" id="Path-1" fill="#658467" sketch:type="MSShapeGroup"></path>
            <path d="M-425.233829,368.687891 L-368.206718,419.159891 L-347.469586,396.727891 L-329.324596,351.863891 L-311.290987,424.767891 L-293.029553,410.758844 L-290.381721,435.994844 L-277.421014,433.190844 L-256.683883,469.642844 L-243.723176,517.310844 L-138.685757,604.234844 L-127.021121,593.018844 L-110.172201,612.646844 L-97.2114941,595.822844 L-86.8429283,609.842844 L-71.2900798,598.626844 L-33.704029,598.626844 L-20.7433218,618.254844 L-14.2629682,593.018844 L-2.59833177,590.214844 L25.8595335,548.154844 L59.5573721,528.526844 L75.1102207,503.290844 L90.6630693,511.702844 L106.215918,500.486844 L128.24912,553.762844 L139.913757,548.154844 L143.801969,576.194844 L156.762676,576.194844 L168.427312,531.330844 L183.980161,531.330844 L198.236939,548.154844 L212.549407,567.903328 L224.214044,601.551328 L235.87868,601.551328 L259.207953,632.395328 L300.778409,615.571328 L326.699823,657.631328 L357.709327,635.199328 L377.150388,609.963328 L404.367873,607.159328 L412.144298,593.139328 L423.808934,598.747328 L448.434278,638.003328 L471.763551,629.591328 L479.448845,643.611328 L519.627037,567.903328 L548.201346,537.059328 L565.050265,531.451328 L579.307043,551.210766 L594.859892,576.446766 L611.708811,565.230766 L622.016624,584.858766 L638.865543,604.486766 L676.451594,697.018766 L699.780867,713.96325 L724.40621,719.57125 L735.979717,694.33525 L769.677555,699.94325 L782.638263,713.96325 L816.163967,705.299328 L831.716815,680.063328 L847.269664,680.063328 L851.157876,649.219328 L865.414654,635.199328 L869.302866,604.355328 L882.263573,590.335328 L891.336068,567.903328 L904.296776,570.707328 L909.481058,590.335328 L921.145695,553.883328 L930.121997,562.295328 L945.583716,534.255328 L953.36014,525.843328 L959.840494,500.607328 L970.209059,494.999328 L974.097272,466.959328 L985.761908,455.743328 L1006.55473,450.135328 L1013.03508,467.090766 L1023.40365,408.206766 L1036.36436,391.382766 L1036.36436,374.427328 L1053.21328,357.603328 L1077.83862,360.407328 L1098.57575,368.819328 L1108.94432,354.799328 L1118.01681,360.407328 L1128.38538,374.427328 L1155.60286,408.075328 L1156.89893,427.703328 L1173.74785,450.135328 L1181.52428,424.899328 L1206.21037,455.874766 L1211.39466,486.718766 L1211.39466,511.954766 L1226.94751,534.386766 L1233.42786,556.818766 L1285.27069,646.546766 L1320.2646,646.546766 L1329.33709,618.506766 L1344.88994,629.722766 L1348.77815,654.958766 L1357.90634,652.154766 L1356.61027,629.722766 L1373.45919,626.918766 L1389.01204,643.742766 L1411.04524,719.450766 L1446.03915,733.470766 L1456.46847,741.882766 L1462.94882,725.058766 L1474.61346,750.294766 L1486.27809,755.902766 L1495.35059,730.666766 L1526.45628,705.430766 L1540.76875,696.887328 L1555.02553,710.907328 L1565.3941,758.575328 L1576.9676,752.967328 L1583.44796,722.123328 L1601.59295,682.867328 L1617.1458,677.259328 L1624.92222,621.179328 L1646.95542,626.787328 L1656.02792,564.847406 L1670.28469,570.455406 L1674.17291,553.839516 L1715.64717,548.231516 L1749.43614,579.075516 L1762.48798,576.271516 L1771.56047,607.115516 L1785.81725,612.723516 L1793.59367,632.472 L1805.25831,626.864 L1827.29151,668.924 L1846.73257,677.336 L1850.62078,654.904 L1863.58149,657.708 L1870.06184,677.336 L1881.72648,663.316 L1927.08896,646.492 L1969.85929,666.12 L2003.61788,649.296 L2016.63428,618.452 L2030.89106,604.432 L2043.85176,587.608 L2060.70068,587.608 L2073.66139,604.432 L2093.10245,587.608 L2111.24744,587.608 L2120.31994,624.06 L2155.31385,610.04 L2165.74317,626.984484 L2205.92136,638.200484 L2216.28992,587.728484 L2229.15444,607.356484 L2249.95232,565.176 L2260.32089,576.392 L2265.50517,539.94 L2284.94623,531.528 L2296.61087,492.272 L2306.97943,495.076 L2331.60478,467.036 L2345.8008,475.448 L2363.94579,461.307516 L2374.31436,430.463516 L2424.86112,472.523516 L2439.11789,475.327516 L2466.33538,441.679516 L2487.07251,450.091516 L2494.84893,422.051516 L2515.58607,444.483516 L2519.47428,469.719516 L2573.90925,419.247516 L2599.83066,424.855516 L2599.83066,447.287516 L2625.66095,405.227516 L2671.07911,419.247516 L2694.40839,388.524 L2695.70446,363.288 L2734.58658,360.484 L2746.25121,380.112 L2763.10013,380.112 L2776.06084,340.856 L2798.09404,329.64 L2814.94296,287.58 L2835.68009,315.62 L2857.7133,301.6 L2878.45043,273.56 L2894.00328,231.5 L2976,1283 L2651.63805,1283 L-508.546875,1226.97477 L-425.233829,368.687891 Z" id="Path-1-Copy-2" fill="#4C6E4F" sketch:type="MSShapeGroup" transform="translate(1233.726562, 757.250000) scale(-1, 1) translate(-1233.726562, -757.250000) "></path>
            <path d="M542.5,980.5 L615.5,1106.5" id="Line" stroke="#232323" stroke-width="3" stroke-linecap="square" sketch:type="MSShapeGroup"></path>
            <path d="M542.5,980.5 L615.5,1106.5" id="Line-Copy" stroke="#232323" stroke-width="3" stroke-linecap="square" sketch:type="MSShapeGroup" transform="translate(579.000000, 1043.500000) rotate(-330.000000) translate(-579.000000, -1043.500000) "></path>
            <path d="M542.5,980.5 L615.5,1106.5" id="Line-Copy-2" stroke="#232323" stroke-width="3" stroke-linecap="square" sketch:type="MSShapeGroup" transform="translate(579.000000, 1043.500000) rotate(-300.000000) translate(-579.000000, -1043.500000) "></path>
            <path d="M542.5,980.5 L615.5,1106.5" id="Line-Copy-3" stroke="#232323" stroke-width="3" stroke-linecap="square" sketch:type="MSShapeGroup" transform="translate(579.000000, 1043.500000) rotate(-270.000000) translate(-579.000000, -1043.500000) "></path>
            <path d="M542.5,980.5 L615.5,1106.5" id="Line-Copy-4" stroke="#232323" stroke-width="3" stroke-linecap="square" sketch:type="MSShapeGroup" transform="translate(579.000000, 1043.500000) rotate(-240.000000) translate(-579.000000, -1043.500000) "></path>
            <path d="M642.109927,1079.8096 L515.890073,1007.1904" id="Line-Copy-5" stroke="#232323" stroke-width="3" stroke-linecap="square" sketch:type="MSShapeGroup"></path>
            <path d="M823.5,980.5 L896.5,1106.5" id="Line-Copy-11" stroke="#232323" stroke-width="3" stroke-linecap="square" sketch:type="MSShapeGroup"></path>
            <path d="M823,980.5 L896,1106.5" id="Line-Copy-6" stroke="#232323" stroke-width="3" stroke-linecap="square" sketch:type="MSShapeGroup" transform="translate(859.500000, 1043.500000) rotate(-330.000000) translate(-859.500000, -1043.500000) "></path>
            <path d="M823,980.5 L896,1106.5" id="Line-Copy-7" stroke="#232323" stroke-width="3" stroke-linecap="square" sketch:type="MSShapeGroup" transform="translate(859.500000, 1043.500000) rotate(-300.000000) translate(-859.500000, -1043.500000) "></path>
            <path d="M823,980.5 L896,1106.5" id="Line-Copy-8" stroke="#232323" stroke-width="3" stroke-linecap="square" sketch:type="MSShapeGroup" transform="translate(859.500000, 1043.500000) rotate(-270.000000) translate(-859.500000, -1043.500000) "></path>
            <path d="M823,980.5 L896,1106.5" id="Line-Copy-9" stroke="#232323" stroke-width="3" stroke-linecap="square" sketch:type="MSShapeGroup" transform="translate(859.500000, 1043.500000) rotate(-240.000000) translate(-859.500000, -1043.500000) "></path>
            <path d="M922.609927,1079.8096 L796.390073,1007.1904" id="Line-Copy-10" stroke="#232323" stroke-width="3" stroke-linecap="square" sketch:type="MSShapeGroup"></path>
            <g id="Group" sketch:type="MSLayerGroup" transform="translate(0.000000, 1126.000000)">
                <rect id="Rectangle-1" fill="#393939" sketch:type="MSShapeGroup" x="0" y="0" width="2560" height="314"></rect>
                <rect id="Rectangle-3" fill="#996336" sketch:type="MSShapeGroup" x="0" y="139" width="2560" height="175"></rect>
                <rect id="Rectangle-2" fill="#6F6F6F" sketch:type="MSShapeGroup" x="0" y="95" width="2560" height="62"></rect>
                <rect id="Rectangle-4" fill-opacity="0.963230299" fill="#AE8936" sketch:type="MSShapeGroup" x="50" y="0" width="154" height="16"></rect>
                <rect id="Rectangle-4-Copy" fill-opacity="0.963230299" fill="#AE8936" sketch:type="MSShapeGroup" x="378" y="0" width="154" height="16"></rect>
                <rect id="Rectangle-4-Copy-3" fill-opacity="0.963230299" fill="#AE8936" sketch:type="MSShapeGroup" x="706" y="0" width="154" height="16"></rect>
                <rect id="Rectangle-4-Copy-2" fill-opacity="0.963230299" fill="#AE8936" sketch:type="MSShapeGroup" x="1034" y="0" width="154" height="16"></rect>
                <rect id="Rectangle-4-Copy-5" fill-opacity="0.963230299" fill="#AE8936" sketch:type="MSShapeGroup" x="1362" y="0" width="154" height="16"></rect>
                <rect id="Rectangle-4-Copy-4" fill-opacity="0.963230299" fill="#AE8936" sketch:type="MSShapeGroup" x="1690" y="0" width="154" height="16"></rect>
                <rect id="Rectangle-4-Copy-7" fill-opacity="0.963230299" fill="#AE8936" sketch:type="MSShapeGroup" x="2018" y="0" width="154" height="16"></rect>
                <rect id="Rectangle-4-Copy-6" fill-opacity="0.963230299" fill="#AE8936" sketch:type="MSShapeGroup" x="2346" y="0" width="154" height="16"></rect>
            </g>
            <path d="M619,871.811376 L641.7359,920.070312 L652.492613,920.070312 L629.756714,867.070312 L619,871.811376 Z" id="Path-12" fill="#272727" sketch:type="MSShapeGroup"></path>
            <path d="M820.853781,878.164062 L849.889999,918.023438 L836.307931,938.023438 L808.173646,941.023438 L807.203499,932.976562 L830.528731,932.976562 L838.289912,917.976562 L828.588435,901.976562 L824.707844,909.976562 L812.095923,892.976562 L799.484003,893.976562 L801.424298,912.976562 L792.761182,911.976562 L785,888.050781 L820.853781,878.164062 Z" id="Path-14" fill="#282727" sketch:type="MSShapeGroup"></path>
            <circle id="Oval-2-Copy" stroke="#222222" stroke-width="15" sketch:type="MSShapeGroup" cx="576.5" cy="1042.5" r="83.5"></circle>
            <path d="M645.230469,911.996094 L801.160156,911.996094 L809.160156,940.996094 L799.160156,944.996094 L794.160156,936.996094 L692.716797,1057.07031 L642.273438,937.996094 L634.273438,910.910156 L645.230469,911.996094 Z" id="Path-8" fill="#CB5F60" sketch:type="MSShapeGroup"></path>
            <path d="M647.928473,951.345103 L588.389895,1035.07018 L592.297401,1044.23727 L685.120712,1035.07018 L692.716797,1057.07031 L585.160156,1050.99609 L576.273438,1037.99609 L642.273438,937.996094 L647.928473,951.345103 Z" id="Path-8-Copy" fill="#CB5F60" sketch:type="MSShapeGroup"></path>
            <circle id="Oval-2" stroke="#222222" stroke-width="15" sketch:type="MSShapeGroup" cx="859.5" cy="1042.5" r="83.5"></circle>
            <path d="M653.363281,922 L693.898438,1030.11719 L789.199219,925.476562 L653.363281,922 Z" id="Path-10" fill="#4C6E4F" sketch:type="MSShapeGroup"></path>
            <circle id="Oval-2-Copy-2" stroke="#222222" stroke-width="7" sketch:type="MSShapeGroup" cx="685" cy="1043" r="32"></circle>
            <path d="M798.390015,941.993658 L846.755433,1050.33386 C846.755433,1050.33386 856.330328,1052.04388 859.833374,1050.33386 C862.694199,1048.93735 865.847046,1041.01428 865.847046,1041.01428 L808.572208,937.333864 L798.390015,941.993658 Z" id="Path-11" fill="#282828" sketch:type="MSShapeGroup"></path>
            <path d="M599.534532,850.516549 L598,865.094605 L616.414386,872 L640.178655,868.16367 L665.498436,865.094605 C665.498436,865.094605 665.79137,857.535767 665.498436,856.654678 C664.786566,854.513507 631.814316,852.5934 631.814316,852.5934 L599.534532,850.516549 Z" id="Path-13" fill="#262525" sketch:type="MSShapeGroup"></path>
            <circle id="Oval-5" fill="#232323" sketch:type="MSShapeGroup" cx="685" cy="1044" r="9"></circle>
            <path d="M675.5,1017.5 L694.5,1069.5" id="Line" stroke="#222222" stroke-width="6" stroke-linecap="square" sketch:type="MSShapeGroup"></path>
            <path d="M675.5,1017.5 L694.5,1069.5" id="Line-Copy-12" stroke="#222222" stroke-width="6" stroke-linecap="square" sketch:type="MSShapeGroup" transform="translate(685.000000, 1043.500000) rotate(56.000000) translate(-685.000000, -1043.500000) "></path>
            <path d="M712.26666,1048.27276 L657.73334,1038.72724" id="Line-Copy-13" stroke="#222222" stroke-width="6" stroke-linecap="square" sketch:type="MSShapeGroup"></path>
            <g id="Rectangle-12">
                <use fill-opacity="0.4" fill="#000000" sketch:type="MSShapeGroup" xlink:href="#path-2"></use>
                <use fill="url(#linearGradient-1)" xlink:href="#path-2"></use>
            </g>
        </g>
    </g>
</svg>